<svg xmlns="http://www.w3.org/2000/svg"  viewBox="0 0 50 50" width="100px" height="100px"><path d="M 0.8125 0 C 0.261719 0.0507813 -0.144531 0.542969 -0.09375 1.09375 C -0.0429688 1.644531 0.449219 2.050781 1 2 L 1 9.8125 C 1 17.113281 6.886719 23 14.1875 23 L 24 23 C 24 23.601563 24.398438 24 25 24 C 25.601563 24 26 23.601563 26 23 L 26 11 C 26 10.398438 25.601563 10 25 10 C 24.398438 10 24 10.398438 24 11 L 14.1875 11 C 13.585938 11 13 10.414063 13 9.8125 L 13 2 C 13.359375 2.003906 13.695313 1.816406 13.878906 1.503906 C 14.058594 1.191406 14.058594 0.808594 13.878906 0.496094 C 13.695313 0.183594 13.359375 -0.00390625 13 0 L 1 0 C 0.96875 0 0.9375 0 0.90625 0 C 0.875 0 0.84375 0 0.8125 0 Z M 28 11 L 28 23 L 35.8125 23 C 36.511719 23 37 23.488281 37 24.1875 L 37 32 C 36.96875 32 36.9375 32 36.90625 32 C 36.355469 32.027344 35.925781 32.496094 35.953125 33.046875 C 35.980469 33.597656 36.449219 34.027344 37 34 L 49 34 C 49.359375 34.003906 49.695313 33.816406 49.878906 33.503906 C 50.058594 33.191406 50.058594 32.808594 49.878906 32.496094 C 49.695313 32.183594 49.359375 31.996094 49 32 L 49 24.1875 C 49 16.886719 43.113281 11 35.8125 11 Z M 43 34 L 42.09375 35.5 C 41.394531 36.699219 38 42.601563 38 45 C 38 47.800781 40.199219 50 43 50 C 45.800781 50 48 47.800781 48 45 C 48 42.699219 44.605469 36.699219 43.90625 35.5 Z"/></svg>