<svg xmlns="http://www.w3.org/2000/svg"  viewBox="0 0 512 512" width="100px" height="100px"><path d="M 73.5 0 L 73.5 25 A 15 15 0 0 0 88.5 40 L 423.5 40 A 15 15 0 0 0 438.5 25 L 438.5 0 L 73.5 0 z M 118.5 55 L 118.5 125 A 15 15 0 0 0 133.5 140 L 378.5 140 A 15 15 0 0 0 393.5 125 L 393.5 55 L 118.5 55 z M 196 75 L 216 75 A 17.52 17.52 0 0 1 233.5 92.5 L 233.5 102.5 A 17.52 17.52 0 0 1 216 120 L 196 120 A 17.52 17.52 0 0 1 178.5 102.5 L 178.5 92.5 A 17.52 17.52 0 0 1 196 75 z M 296 75 L 316 75 A 17.52 17.52 0 0 1 333.5 92.5 L 333.5 102.5 A 17.52 17.52 0 0 1 316 120 L 296 120 A 17.52 17.52 0 0 1 278.5 102.5 L 278.5 92.5 A 17.52 17.52 0 0 1 296 75 z M 196 90 C 194.615 90 193.5 91.115 193.5 92.5 L 193.5 102.5 C 193.5 103.885 194.615 105 196 105 L 216 105 C 217.385 105 218.5 103.885 218.5 102.5 L 218.5 92.5 C 218.5 91.115 217.385 90 216 90 L 196 90 z M 296 90 C 294.615 90 293.5 91.115 293.5 92.5 L 293.5 102.5 C 293.5 103.885 294.615 105 296 105 L 316 105 C 317.385 105 318.5 103.885 318.5 102.5 L 318.5 92.5 C 318.5 91.115 317.385 90 316 90 L 296 90 z M 178.5 155 L 178.5 171.67969 A 319.81 319.81 0 0 0 333.5 171.67969 L 333.5 155 L 178.5 155 z M 178.5 187.10938 L 178.5 207.5 A 7.5 7.5 0 0 0 183.93945 214.71094 A 262 262 0 0 0 256 224.81055 A 262 262 0 0 0 328.06055 214.71094 A 7.5 7.5 0 0 0 333.5 207.5 L 333.5 187.10938 A 335.08 335.08 0 0 1 256 196.2207 A 335.08 335.08 0 0 1 178.5 187.10938 z M 223.5 237.89062 L 223.5 327.5 A 7.54 7.54 0 0 0 226.31055 333.35938 L 251.31055 353.35938 A 7.53 7.53 0 0 0 260.68945 353.35938 L 285.68945 333.35938 A 7.54 7.54 0 0 0 288.5 327.5 L 288.5 237.89062 C 280.2 238.87063 271.86667 239.47255 263.5 239.69922 L 263.5 271 A 7.5 7.5 0 0 1 248.5 271 L 248.5 239.69922 C 240.16667 239.47255 231.83333 238.87063 223.5 237.89062 z M 351.48828 255.6875 A 7.5 7.5 0 0 0 345.75 258.35938 L 313.07031 297.16016 A 7.5049867 7.5049867 0 0 0 324.55078 306.83008 L 357.23047 268 A 7.51 7.51 0 0 0 356.32031 257.44922 A 7.5 7.5 0 0 0 351.48828 255.6875 z M 160.29688 255.69141 A 7.5 7.5 0 0 0 155.67969 257.44922 A 7.51 7.51 0 0 0 154.76953 268.01953 L 187.44922 306.83008 A 7.51 7.51 0 0 0 193.19922 309.5 A 7.51 7.51 0 0 0 198.92969 297.16016 L 166.25 258.35938 A 7.5 7.5 0 0 0 160.29688 255.69141 z M 138.85156 301.0332 A 7.5 7.5 0 0 0 131.4707 307 A 7.5 7.5 0 0 0 137.2793 315.88086 L 180.16992 324.81055 A 7.39 7.39 0 0 0 181.71094 324.9707 A 7.5 7.5 0 0 0 183.23047 310.13086 L 140.33984 301.18945 A 7.5 7.5 0 0 0 138.85156 301.0332 z M 373.50195 301.06641 A 7.5026612 7.5026612 0 0 0 371.69922 301.2207 L 328.81055 310.16016 A 7.48 7.48 0 0 0 323 319 A 7.49 7.49 0 0 0 330.33008 325 A 7.39 7.39 0 0 0 331.86914 324.83984 L 374.75977 315.91016 A 7.5026612 7.5026612 0 0 0 373.50195 301.06641 z M 380.77734 350.00586 A 7.5 7.5 0 0 0 379.25 350.21094 L 256 379.78906 L 132.75 350.21094 A 7.5 7.5 0 0 0 123.5 357.5 L 123.5 388 L 256 419.78906 L 388.5 388 L 388.5 357.5 A 7.5 7.5 0 0 0 380.77734 350.00586 z M 148.5 409.41016 L 148.5 467 L 363.5 467 L 363.5 409.41016 L 257.75 434.78906 A 7.4 7.4 0 0 1 254.25 434.78906 L 148.5 409.41016 z M 186 437 L 201 437 A 7.5 7.5 0 0 1 201 452 L 186 452 A 7.5 7.5 0 0 1 186 437 z M 311 437 L 326 437 A 7.5 7.5 0 0 1 326 452 L 311 452 A 7.5 7.5 0 0 1 311 437 z M 88.5 482 A 15 15 0 0 0 88.5 512 L 423.5 512 A 15 15 0 0 0 423.5 482 L 88.5 482 z"/></svg>