<svg xmlns="http://www.w3.org/2000/svg"  viewBox="0 0 32 32" width="100px" height="100px"><path d="M 7 4 L 7 5 L 7 10 L 8 10 L 8 19 L 24 19 L 24 10 L 25 10 L 25 4 L 7 4 z M 9 6 L 23 6 L 23 8 L 9 8 L 9 6 z M 10 10 L 22 10 L 22 17 L 10 17 L 10 10 z M 4 20 L 4 22 L 24 22 C 25.190196 22 26 22.809804 26 24 C 26 25.190196 25.190196 26 24 26 L 4 26 L 4 28 L 24 28 C 26.209804 28 28 26.209804 28 24 C 28 21.790196 26.209804 20 24 20 L 4 20 z M 4 23 L 4 25 C 4.6 25 5 24.6 5 24 C 5 23.4 4.6 23 4 23 z M 8 23 C 7.448 23 7 23.448 7 24 C 7 24.552 7.448 25 8 25 C 8.552 25 9 24.552 9 24 C 9 23.448 8.552 23 8 23 z M 12 23 C 11.448 23 11 23.448 11 24 C 11 24.552 11.448 25 12 25 C 12.552 25 13 24.552 13 24 C 13 23.448 12.552 23 12 23 z M 16 23 C 15.448 23 15 23.448 15 24 C 15 24.552 15.448 25 16 25 C 16.552 25 17 24.552 17 24 C 17 23.448 16.552 23 16 23 z M 20 23 C 19.448 23 19 23.448 19 24 C 19 24.552 19.448 25 20 25 C 20.552 25 21 24.552 21 24 C 21 23.448 20.552 23 20 23 z M 24 23 C 23.448 23 23 23.448 23 24 C 23 24.552 23.448 25 24 25 C 24.552 25 25 24.552 25 24 C 25 23.448 24.552 23 24 23 z"/></svg>