<svg xmlns="http://www.w3.org/2000/svg"  viewBox="0 0 50 50" width="100px" height="100px"><path d="M 29.189453 5 L 9.1894531 13 L 27.75 13 L 42.949219 5 L 29.189453 5 z M 46 5.6601562 L 29 14.599609 L 29 20.189453 L 46 9.4492188 L 46 5.6601562 z M 5 15 L 5 21 L 13 21 L 13 41 L 5 41 L 5 47 L 27 47 L 27 41 L 19 41 L 19 21 L 27 21 L 27 15 L 5 15 z M 40 15.599609 L 28.289062 23 L 21 23 L 21 39 L 27.689453 39 L 43.769531 28 L 40 28 L 40 15.599609 z M 46 28.900391 L 29 40.529297 L 29 45.939453 L 46 32.519531 L 46 28.900391 z M 11 36.800781 L 7.4902344 39 L 11 39 L 11 36.800781 z"/></svg>